Coordinates
version=1
nRows=20
nColumns=21
inDegrees=no
endheader
time	ra_wr_s_p	ra_wr_e_f	ra_cmc1_ad_ab	ra_cmc1_f_e	ra_mcp1_f_e	ra_ip1_f_e	ra_mcp2_e_f	ra_pip2_e_f	ra_dip2_e_f	ra_mcp3_e_f	ra_pip3_e_f	ra_dip3_e_f	ra_mcp4_e_f	ra_pip4_e_f	ra_dip4_e_f	ra_mcp5_e_f	ra_pip5_e_f	ra_dip5_e_f	ra_el_e_f	ra_wr_ad_ab
0.375000	0.000000	0.087300	0.758664	0.758664	-0.682771	-1.365542	1.365542	1.820723	1.365542	1.365542	1.820723	1.365542	1.365542	1.820723	1.365542	1.365542	1.820723	1.365542	0.173975	0.085000
0.376000	0.000000	0.087300	0.759220	0.759220	-0.683272	-1.366543	1.366543	1.822058	1.366543	1.366543	1.822058	1.366543	1.366543	1.822058	1.366543	1.366543	1.822058	1.366543	0.170360	0.085000
0.377000	0.000000	0.087300	0.759768	0.759768	-0.683765	-1.367530	1.367530	1.823373	1.367530	1.367530	1.823373	1.367530	1.367530	1.823373	1.367530	1.367530	1.823373	1.367530	0.166798	0.085000
0.378000	0.000000	0.087300	0.760308	0.760308	-0.684251	-1.368501	1.368501	1.824669	1.368501	1.368501	1.824669	1.368501	1.368501	1.824669	1.368501	1.368501	1.824669	1.368501	0.163289	0.085000
0.379000	0.000000	0.087300	0.760839	0.760839	-0.684729	-1.369459	1.369459	1.825945	1.369459	1.369459	1.825945	1.369459	1.369459	1.825945	1.369459	1.369459	1.825945	1.369459	0.159832	0.085000
0.380000	0.000000	0.087300	0.761363	0.761363	-0.685201	-1.370402	1.370402	1.827202	1.370402	1.370402	1.827202	1.370402	1.370402	1.827202	1.370402	1.370402	1.827202	1.370402	0.156426	0.085000
0.381000	0.000000	0.087300	0.761879	0.761879	-0.685665	-1.371331	1.371331	1.828441	1.371331	1.371331	1.828441	1.371331	1.371331	1.828441	1.371331	1.371331	1.828441	1.371331	0.153072	0.085000
0.382000	0.000000	0.087300	0.762388	0.762388	-0.686123	-1.372245	1.372245	1.829660	1.372245	1.372245	1.829660	1.372245	1.372245	1.829660	1.372245	1.372245	1.829660	1.372245	0.149769	0.085000
0.383000	0.000000	0.087300	0.762888	0.762888	-0.686573	-1.373146	1.373146	1.830862	1.373146	1.373146	1.830862	1.373146	1.373146	1.830862	1.373146	1.373146	1.830862	1.373146	0.146516	0.085000
0.384000	0.000000	0.087300	0.763381	0.763381	-0.687017	-1.374033	1.374033	1.832044	1.374033	1.374033	1.832044	1.374033	1.374033	1.832044	1.374033	1.374033	1.832044	1.374033	0.143312	0.085000
0.385000	0.000000	0.087300	0.763866	0.763866	-0.687453	-1.374907	1.374907	1.833209	1.374907	1.374907	1.833209	1.374907	1.374907	1.833209	1.374907	1.374907	1.833209	1.374907	0.140158	0.085000
0.386000	0.000000	0.087300	0.764344	0.764344	-0.687883	-1.375767	1.375767	1.834356	1.375767	1.375767	1.834356	1.375767	1.375767	1.834356	1.375767	1.375767	1.834356	1.375767	0.137053	0.085000
0.387000	0.000000	0.087300	0.764814	0.764814	-0.688307	-1.376613	1.376613	1.835485	1.376613	1.376613	1.835485	1.376613	1.376613	1.835485	1.376613	1.376613	1.835485	1.376613	0.133995	0.085000
0.388000	0.000000	0.087300	0.765277	0.765277	-0.688723	-1.377447	1.377447	1.836596	1.377447	1.377447	1.836596	1.377447	1.377447	1.836596	1.377447	1.377447	1.836596	1.377447	0.130986	0.085000
0.389000	0.000000	0.087300	0.765733	0.765733	-0.689134	-1.378267	1.378267	1.837690	1.378267	1.378267	1.837690	1.378267	1.378267	1.837690	1.378267	1.378267	1.837690	1.378267	0.128024	0.085000
0.390000	0.000000	0.087300	0.766182	0.766182	-0.689537	-1.379075	1.379075	1.838766	1.379075	1.379075	1.838766	1.379075	1.379075	1.838766	1.379075	1.379075	1.838766	1.379075	0.125108	0.085000
0.391000	0.000000	0.087300	0.766623	0.766623	-0.689935	-1.379869	1.379869	1.839826	1.379869	1.379869	1.839826	1.379869	1.379869	1.839826	1.379869	1.379869	1.839826	1.379869	0.122239	0.085000
0.392000	0.000000	0.087300	0.767058	0.767058	-0.690325	-1.380651	1.380651	1.840868	1.380651	1.380651	1.840868	1.380651	1.380651	1.840868	1.380651	1.380651	1.840868	1.380651	0.119415	0.085000
0.393000	0.000000	0.087300	0.767485	0.767485	-0.690710	-1.381420	1.381420	1.841894	1.381420	1.381420	1.841894	1.381420	1.381420	1.841894	1.381420	1.381420	1.841894	1.381420	0.116637	0.085000
0.394000	0.000000	0.087300	0.767906	0.767906	-0.691089	-1.382177	1.382177	1.842903	1.382177	1.382177	1.842903	1.382177	1.382177	1.842903	1.382177	1.382177	1.842903	1.382177	0.113904	0.085000
